<svg width="292" height="36" viewBox="0 0 292 36" fill="none" xmlns="http://www.w3.org/2000/svg">
<g filter="url(#filter0_b_53_429)">
<rect width="87" height="36" rx="18" fill="white" fill-opacity="0.07"/>
<path d="M18 11.3333C21.6744 11.3333 24.6667 14.3241 24.6667 18.0038C24.6667 21.6758 21.6744 24.6666 18 24.6666C14.3256 24.6666 11.3333 21.6758 11.3333 18.0038C11.3333 14.3241 14.3256 11.3333 18 11.3333ZM17.2407 15.3533C17.0991 15.3533 16.964 15.3854 16.8353 15.4497C16.6744 15.5398 16.5457 15.6813 16.4749 15.8485C16.4299 15.9643 16.3591 16.3116 16.3591 16.318C16.2883 16.6975 16.2497 17.315 16.2497 17.9968C16.2497 18.647 16.2883 19.2381 16.3462 19.624C16.3526 19.6305 16.4234 20.0614 16.5007 20.2093C16.6422 20.4795 16.9189 20.6467 17.2149 20.6467H17.2407C17.4337 20.6403 17.8391 20.473 17.8391 20.4666C18.5212 20.1836 19.8662 19.3024 20.4067 18.7171L20.4453 18.6785C20.5161 18.6078 20.6062 18.4985 20.6255 18.4727C20.7285 18.3377 20.7799 18.1704 20.7799 18.0038C20.7799 17.8167 20.722 17.643 20.6126 17.5015C20.5869 17.4758 20.4904 17.3664 20.4003 17.2764C19.8726 16.7104 18.4955 15.7842 17.7748 15.5012C17.6654 15.4568 17.3887 15.3597 17.2407 15.3533Z" fill="#FACD66"/>
<path d="M40.332 14.6C40.78 14.6 41.176 14.704 41.52 14.912C41.864 15.112 42.136 15.392 42.336 15.752C42.536 16.112 42.636 16.524 42.636 16.988C42.636 17.452 42.536 17.872 42.336 18.248C42.136 18.616 41.864 18.908 41.52 19.124C41.176 19.34 40.78 19.448 40.332 19.448H37.788L37.848 19.328V22.64C37.848 22.736 37.812 22.82 37.74 22.892C37.668 22.964 37.584 23 37.488 23C37.376 23 37.288 22.964 37.224 22.892C37.16 22.82 37.128 22.736 37.128 22.64V14.96C37.128 14.864 37.164 14.78 37.236 14.708C37.308 14.636 37.392 14.6 37.488 14.6H40.332ZM40.332 18.752C40.644 18.752 40.916 18.676 41.148 18.524C41.38 18.364 41.56 18.152 41.688 17.888C41.824 17.616 41.892 17.316 41.892 16.988C41.892 16.66 41.824 16.372 41.688 16.124C41.56 15.868 41.38 15.668 41.148 15.524C40.916 15.38 40.644 15.308 40.332 15.308H37.788L37.848 15.2V18.824L37.776 18.752H40.332ZM44.8884 22.64C44.8884 22.736 44.8524 22.82 44.7804 22.892C44.7084 22.964 44.6244 23 44.5284 23C44.4244 23 44.3364 22.964 44.2644 22.892C44.2004 22.82 44.1684 22.736 44.1684 22.64V14.48C44.1684 14.384 44.2044 14.3 44.2764 14.228C44.3484 14.156 44.4324 14.12 44.5284 14.12C44.6324 14.12 44.7164 14.156 44.7804 14.228C44.8524 14.3 44.8884 14.384 44.8884 14.48V22.64ZM51.8901 16.868C51.9941 16.868 52.0781 16.904 52.1421 16.976C52.2141 17.048 52.2501 17.136 52.2501 17.24V22.64C52.2501 22.736 52.2141 22.82 52.1421 22.892C52.0701 22.964 51.9861 23 51.8901 23C51.7861 23 51.6981 22.964 51.6261 22.892C51.5621 22.82 51.5301 22.736 51.5301 22.64V21.212L51.7341 21.116C51.7341 21.34 51.6701 21.568 51.5421 21.8C51.4221 22.032 51.2541 22.248 51.0381 22.448C50.8221 22.648 50.5661 22.812 50.2701 22.94C49.9821 23.06 49.6701 23.12 49.3341 23.12C48.7901 23.12 48.3021 22.98 47.8701 22.7C47.4461 22.42 47.1101 22.036 46.8621 21.548C46.6221 21.06 46.5021 20.512 46.5021 19.904C46.5021 19.28 46.6261 18.732 46.8741 18.26C47.1221 17.78 47.4581 17.404 47.8821 17.132C48.3061 16.86 48.7861 16.724 49.3221 16.724C49.6661 16.724 49.9861 16.784 50.2821 16.904C50.5861 17.024 50.8501 17.188 51.0741 17.396C51.2981 17.604 51.4701 17.844 51.5901 18.116C51.7181 18.38 51.7821 18.656 51.7821 18.944L51.5301 18.764V17.24C51.5301 17.136 51.5621 17.048 51.6261 16.976C51.6981 16.904 51.7861 16.868 51.8901 16.868ZM49.3941 22.448C49.8181 22.448 50.1941 22.34 50.5221 22.124C50.8501 21.9 51.1061 21.596 51.2901 21.212C51.4821 20.82 51.5781 20.384 51.5781 19.904C51.5781 19.432 51.4821 19.008 51.2901 18.632C51.1061 18.256 50.8501 17.956 50.5221 17.732C50.1941 17.508 49.8181 17.396 49.3941 17.396C48.9781 17.396 48.6021 17.504 48.2661 17.72C47.9381 17.936 47.6781 18.232 47.4861 18.608C47.3021 18.984 47.2101 19.416 47.2101 19.904C47.2101 20.384 47.3021 20.82 47.4861 21.212C47.6781 21.596 47.9381 21.9 48.2661 22.124C48.5941 22.34 48.9701 22.448 49.3941 22.448ZM58.7114 16.76C58.8154 16.76 58.8994 16.796 58.9634 16.868C59.0354 16.94 59.0714 17.024 59.0714 17.12V22.412C59.0714 23.06 58.9434 23.604 58.6874 24.044C58.4314 24.492 58.0874 24.828 57.6554 25.052C57.2234 25.284 56.7314 25.4 56.1794 25.4C55.8354 25.4 55.5154 25.36 55.2194 25.28C54.9314 25.208 54.6954 25.112 54.5114 24.992C54.4154 24.936 54.3434 24.868 54.2954 24.788C54.2474 24.708 54.2434 24.624 54.2834 24.536C54.3234 24.424 54.3834 24.348 54.4634 24.308C54.5514 24.276 54.6394 24.28 54.7274 24.32C54.8634 24.392 55.0594 24.48 55.3154 24.584C55.5714 24.688 55.8634 24.74 56.1914 24.74C56.6314 24.74 57.0114 24.648 57.3314 24.464C57.6594 24.28 57.9114 24.012 58.0874 23.66C58.2634 23.316 58.3514 22.904 58.3514 22.424V21.56L58.4354 21.848C58.3154 22.096 58.1434 22.316 57.9194 22.508C57.7034 22.7 57.4514 22.852 57.1634 22.964C56.8834 23.068 56.5834 23.12 56.2634 23.12C55.7834 23.12 55.3834 23.024 55.0634 22.832C54.7514 22.632 54.5194 22.36 54.3674 22.016C54.2154 21.672 54.1394 21.268 54.1394 20.804V17.12C54.1394 17.024 54.1714 16.94 54.2354 16.868C54.2994 16.796 54.3874 16.76 54.4994 16.76C54.6034 16.76 54.6874 16.796 54.7514 16.868C54.8234 16.94 54.8594 17.024 54.8594 17.12V20.696C54.8594 21.256 54.9794 21.688 55.2194 21.992C55.4674 22.296 55.8674 22.448 56.4194 22.448C56.7634 22.448 57.0794 22.368 57.3674 22.208C57.6554 22.04 57.8914 21.824 58.0754 21.56C58.2594 21.288 58.3514 21 58.3514 20.696V17.12C58.3514 17.024 58.3834 16.94 58.4474 16.868C58.5194 16.796 58.6074 16.76 58.7114 16.76ZM69.269 16.868C69.373 16.868 69.457 16.904 69.521 16.976C69.593 17.048 69.629 17.136 69.629 17.24V22.64C69.629 22.736 69.593 22.82 69.521 22.892C69.449 22.964 69.365 23 69.269 23C69.165 23 69.077 22.964 69.005 22.892C68.941 22.82 68.909 22.736 68.909 22.64V21.212L69.113 21.116C69.113 21.34 69.049 21.568 68.921 21.8C68.801 22.032 68.633 22.248 68.417 22.448C68.201 22.648 67.945 22.812 67.649 22.94C67.361 23.06 67.049 23.12 66.713 23.12C66.169 23.12 65.681 22.98 65.249 22.7C64.825 22.42 64.489 22.036 64.241 21.548C64.001 21.06 63.881 20.512 63.881 19.904C63.881 19.28 64.005 18.732 64.253 18.26C64.501 17.78 64.837 17.404 65.261 17.132C65.685 16.86 66.165 16.724 66.701 16.724C67.045 16.724 67.365 16.784 67.661 16.904C67.965 17.024 68.229 17.188 68.453 17.396C68.677 17.604 68.849 17.844 68.969 18.116C69.097 18.38 69.161 18.656 69.161 18.944L68.909 18.764V17.24C68.909 17.136 68.941 17.048 69.005 16.976C69.077 16.904 69.165 16.868 69.269 16.868ZM66.773 22.448C67.197 22.448 67.573 22.34 67.901 22.124C68.229 21.9 68.485 21.596 68.669 21.212C68.861 20.82 68.957 20.384 68.957 19.904C68.957 19.432 68.861 19.008 68.669 18.632C68.485 18.256 68.229 17.956 67.901 17.732C67.573 17.508 67.197 17.396 66.773 17.396C66.357 17.396 65.981 17.504 65.645 17.72C65.317 17.936 65.057 18.232 64.865 18.608C64.681 18.984 64.589 19.416 64.589 19.904C64.589 20.384 64.681 20.82 64.865 21.212C65.057 21.596 65.317 21.9 65.645 22.124C65.973 22.34 66.349 22.448 66.773 22.448ZM72.3103 22.64C72.3103 22.736 72.2743 22.82 72.2023 22.892C72.1303 22.964 72.0463 23 71.9503 23C71.8463 23 71.7583 22.964 71.6863 22.892C71.6223 22.82 71.5903 22.736 71.5903 22.64V14.48C71.5903 14.384 71.6263 14.3 71.6983 14.228C71.7703 14.156 71.8543 14.12 71.9503 14.12C72.0543 14.12 72.1383 14.156 72.2023 14.228C72.2743 14.3 72.3103 14.384 72.3103 14.48V22.64ZM75.0759 22.64C75.0759 22.736 75.0399 22.82 74.9679 22.892C74.8959 22.964 74.8119 23 74.7159 23C74.6119 23 74.5239 22.964 74.4519 22.892C74.3879 22.82 74.3559 22.736 74.3559 22.64V14.48C74.3559 14.384 74.3919 14.3 74.4639 14.228C74.5359 14.156 74.6199 14.12 74.7159 14.12C74.8199 14.12 74.9039 14.156 74.9679 14.228C75.0399 14.3 75.0759 14.384 75.0759 14.48V22.64Z" fill="white"/>
</g>
<g filter="url(#filter1_b_53_429)">
<rect x="96" width="151" height="36" rx="18" fill="white" fill-opacity="0.07"/>
<path d="M124.807 20.0067C124.08 19.96 123.333 20.2267 122.78 20.78C121.74 21.82 121.74 23.5067 122.78 24.5534C123.133 24.9067 123.567 25.14 124.027 25.2534C124.28 25.32 124.547 25.34 124.813 25.3267C125.447 25.3 126.067 25.0467 126.553 24.56C127.24 23.8734 127.473 22.9067 127.253 22.0334C127.147 21.5734 126.907 21.14 126.553 20.7867C126.073 20.3 125.447 20.04 124.807 20.0067ZM126.16 22.6534C126.16 22.7934 126.107 22.9134 126.013 23.0067C125.92 23.1 125.8 23.1534 125.66 23.1534H125.167V23.6734C125.167 23.8134 125.113 23.9334 125.02 24.0267C124.927 24.12 124.807 24.1734 124.667 24.1734C124.393 24.1734 124.167 23.9467 124.167 23.6734V23.1534H123.667C123.393 23.1534 123.167 22.9267 123.167 22.6534C123.167 22.38 123.393 22.1534 123.667 22.1534H124.167V21.68C124.167 21.4067 124.393 21.18 124.667 21.18C124.94 21.18 125.167 21.4067 125.167 21.68V22.1534H125.66C125.94 22.1534 126.16 22.38 126.16 22.6534Z" fill="#FACD66"/>
<path d="M120.153 18.0467C119.88 18.0467 119.66 18.2667 119.66 18.54C119.66 18.8134 119.88 19.0334 120.153 19.0334C120.427 19.0334 120.647 18.8134 120.647 18.54C120.647 18.2667 120.427 18.0467 120.153 18.0467Z" fill="#FACD66"/>
<path d="M116.507 18.7067C116.233 18.7067 116.013 18.9267 116.013 19.2001C116.013 19.4734 116.233 19.6934 116.507 19.6934C116.78 19.6934 117 19.4734 117 19.2001C117 18.9267 116.78 18.7067 116.507 18.7067Z" fill="#FACD66"/>
<path d="M122.793 11.3333H117.207C117.02 11.3333 116.84 11.34 116.667 11.3666C114.567 11.56 113.333 12.9666 113.333 15.2066V20.7933C113.333 23.0333 114.567 24.44 116.667 24.6333C116.84 24.66 117.02 24.6666 117.207 24.6666H121C121.26 24.6666 121.427 24.3733 121.327 24.1333C121.133 23.6733 121 23.14 121 22.6666C121 20.6466 122.647 19 124.667 19C125.173 19 125.667 19.1 126.12 19.3C126.367 19.4066 126.667 19.24 126.667 18.9733V15.2066C126.667 12.78 125.22 11.3333 122.793 11.3333ZM121.653 15.3666V18.54C121.653 18.5466 121.647 18.5533 121.647 18.5666C121.633 19.38 120.973 20.04 120.153 20.04C119.327 20.04 118.66 19.3666 118.66 18.5466C118.66 17.72 119.333 17.0533 120.153 17.0533C120.327 17.0533 120.493 17.0866 120.653 17.1466V16.02L118.007 16.74V19.2066C118.007 19.2133 118 19.22 118 19.2266C117.987 20.04 117.327 20.6933 116.507 20.6933C115.68 20.6933 115.013 20.02 115.013 19.2C115.013 18.38 115.687 17.7066 116.507 17.7066C116.68 17.7066 116.847 17.74 117 17.8V16.36V15.1933C117 14.5733 117.387 14.0733 117.98 13.9133L119.967 13.3666C120.587 13.2 120.967 13.3666 121.18 13.5266C121.487 13.76 121.64 14.14 121.64 14.6466V15.3666H121.653Z" fill="#FACD66"/>
<path d="M141.936 15.524L139.02 22.772C138.988 22.852 138.944 22.912 138.888 22.952C138.832 22.992 138.768 23.012 138.696 23.012C138.584 23.012 138.5 22.984 138.444 22.928C138.388 22.864 138.356 22.788 138.348 22.7C138.34 22.66 138.344 22.612 138.36 22.556L141.528 14.804C141.568 14.716 141.616 14.656 141.672 14.624C141.736 14.584 141.808 14.564 141.888 14.564C141.968 14.564 142.036 14.588 142.092 14.636C142.156 14.676 142.204 14.732 142.236 14.804L145.392 22.52C145.408 22.568 145.416 22.616 145.416 22.664C145.416 22.776 145.38 22.864 145.308 22.928C145.236 22.984 145.152 23.012 145.056 23.012C144.976 23.012 144.904 22.992 144.84 22.952C144.784 22.904 144.74 22.844 144.708 22.772L141.72 15.476L141.936 15.524ZM139.716 20.576L140.016 19.868H143.736L143.88 20.576H139.716ZM151.746 14.12C151.85 14.12 151.934 14.156 151.998 14.228C152.07 14.292 152.106 14.376 152.106 14.48V22.64C152.106 22.736 152.07 22.82 151.998 22.892C151.926 22.964 151.842 23 151.746 23C151.642 23 151.554 22.964 151.482 22.892C151.418 22.82 151.386 22.736 151.386 22.64V21.212L151.59 21.044C151.59 21.268 151.53 21.504 151.41 21.752C151.29 21.992 151.118 22.216 150.894 22.424C150.678 22.632 150.422 22.8 150.126 22.928C149.838 23.056 149.526 23.12 149.19 23.12C148.654 23.12 148.17 22.98 147.738 22.7C147.314 22.42 146.978 22.04 146.73 21.56C146.482 21.08 146.358 20.532 146.358 19.916C146.358 19.308 146.482 18.764 146.73 18.284C146.978 17.796 147.314 17.416 147.738 17.144C148.162 16.864 148.642 16.724 149.178 16.724C149.506 16.724 149.818 16.784 150.114 16.904C150.41 17.024 150.67 17.188 150.894 17.396C151.126 17.604 151.306 17.844 151.434 18.116C151.57 18.38 151.638 18.656 151.638 18.944L151.386 18.764V14.48C151.386 14.384 151.418 14.3 151.482 14.228C151.554 14.156 151.642 14.12 151.746 14.12ZM149.25 22.448C149.682 22.448 150.058 22.34 150.378 22.124C150.706 21.9 150.962 21.6 151.146 21.224C151.338 20.84 151.434 20.404 151.434 19.916C151.434 19.436 151.338 19.008 151.146 18.632C150.962 18.248 150.706 17.948 150.378 17.732C150.05 17.508 149.674 17.396 149.25 17.396C148.834 17.396 148.458 17.508 148.122 17.732C147.794 17.948 147.534 18.248 147.342 18.632C147.158 19.008 147.066 19.436 147.066 19.916C147.066 20.396 147.158 20.828 147.342 21.212C147.534 21.596 147.794 21.9 148.122 22.124C148.458 22.34 148.834 22.448 149.25 22.448ZM159.023 14.12C159.127 14.12 159.211 14.156 159.275 14.228C159.347 14.292 159.383 14.376 159.383 14.48V22.64C159.383 22.736 159.347 22.82 159.275 22.892C159.203 22.964 159.119 23 159.023 23C158.919 23 158.831 22.964 158.759 22.892C158.695 22.82 158.663 22.736 158.663 22.64V21.212L158.867 21.044C158.867 21.268 158.807 21.504 158.687 21.752C158.567 21.992 158.395 22.216 158.171 22.424C157.955 22.632 157.699 22.8 157.403 22.928C157.115 23.056 156.803 23.12 156.467 23.12C155.931 23.12 155.447 22.98 155.015 22.7C154.591 22.42 154.255 22.04 154.007 21.56C153.759 21.08 153.635 20.532 153.635 19.916C153.635 19.308 153.759 18.764 154.007 18.284C154.255 17.796 154.591 17.416 155.015 17.144C155.439 16.864 155.919 16.724 156.455 16.724C156.783 16.724 157.095 16.784 157.391 16.904C157.687 17.024 157.947 17.188 158.171 17.396C158.403 17.604 158.583 17.844 158.711 18.116C158.847 18.38 158.915 18.656 158.915 18.944L158.663 18.764V14.48C158.663 14.384 158.695 14.3 158.759 14.228C158.831 14.156 158.919 14.12 159.023 14.12ZM156.527 22.448C156.959 22.448 157.335 22.34 157.655 22.124C157.983 21.9 158.239 21.6 158.423 21.224C158.615 20.84 158.711 20.404 158.711 19.916C158.711 19.436 158.615 19.008 158.423 18.632C158.239 18.248 157.983 17.948 157.655 17.732C157.327 17.508 156.951 17.396 156.527 17.396C156.111 17.396 155.735 17.508 155.399 17.732C155.071 17.948 154.811 18.248 154.619 18.632C154.435 19.008 154.343 19.436 154.343 19.916C154.343 20.396 154.435 20.828 154.619 21.212C154.811 21.596 155.071 21.9 155.399 22.124C155.735 22.34 156.111 22.448 156.527 22.448ZM164.157 16.892H166.953C167.049 16.892 167.129 16.928 167.193 17C167.257 17.064 167.289 17.144 167.289 17.24C167.289 17.328 167.257 17.404 167.193 17.468C167.129 17.532 167.049 17.564 166.953 17.564H164.157C164.061 17.564 163.977 17.532 163.905 17.468C163.841 17.396 163.809 17.316 163.809 17.228C163.809 17.132 163.841 17.052 163.905 16.988C163.977 16.924 164.061 16.892 164.157 16.892ZM165.393 15.2C165.497 15.2 165.581 15.236 165.645 15.308C165.717 15.38 165.753 15.464 165.753 15.56V21.584C165.753 21.808 165.781 21.976 165.837 22.088C165.901 22.2 165.981 22.276 166.077 22.316C166.173 22.348 166.269 22.364 166.365 22.364C166.429 22.364 166.485 22.356 166.533 22.34C166.589 22.316 166.649 22.304 166.713 22.304C166.785 22.304 166.845 22.332 166.893 22.388C166.949 22.444 166.977 22.516 166.977 22.604C166.977 22.716 166.913 22.812 166.785 22.892C166.657 22.964 166.505 23 166.329 23C166.257 23 166.149 22.996 166.005 22.988C165.861 22.972 165.713 22.928 165.561 22.856C165.409 22.776 165.281 22.64 165.177 22.448C165.081 22.256 165.033 21.98 165.033 21.62V15.56C165.033 15.464 165.065 15.38 165.129 15.308C165.201 15.236 165.289 15.2 165.393 15.2ZM174.273 19.928C174.273 20.536 174.141 21.084 173.877 21.572C173.613 22.052 173.253 22.432 172.797 22.712C172.341 22.984 171.821 23.12 171.237 23.12C170.669 23.12 170.153 22.984 169.689 22.712C169.233 22.432 168.869 22.052 168.597 21.572C168.333 21.084 168.201 20.536 168.201 19.928C168.201 19.312 168.333 18.764 168.597 18.284C168.869 17.804 169.233 17.424 169.689 17.144C170.153 16.864 170.669 16.724 171.237 16.724C171.821 16.724 172.341 16.864 172.797 17.144C173.253 17.424 173.613 17.804 173.877 18.284C174.141 18.764 174.273 19.312 174.273 19.928ZM173.553 19.928C173.553 19.44 173.453 19.008 173.253 18.632C173.053 18.248 172.777 17.948 172.425 17.732C172.081 17.508 171.685 17.396 171.237 17.396C170.805 17.396 170.413 17.508 170.061 17.732C169.709 17.948 169.429 18.248 169.221 18.632C169.021 19.008 168.921 19.44 168.921 19.928C168.921 20.416 169.021 20.848 169.221 21.224C169.429 21.6 169.709 21.9 170.061 22.124C170.413 22.34 170.805 22.448 171.237 22.448C171.685 22.448 172.081 22.34 172.425 22.124C172.777 21.9 173.053 21.6 173.253 21.224C173.453 20.848 173.553 20.416 173.553 19.928ZM181.785 16.724C182.169 16.724 182.521 16.768 182.841 16.856C183.161 16.936 183.417 17.048 183.609 17.192C183.809 17.336 183.909 17.492 183.909 17.66C183.909 17.74 183.881 17.82 183.825 17.9C183.769 17.972 183.693 18.008 183.597 18.008C183.501 18.008 183.421 17.984 183.357 17.936C183.301 17.888 183.241 17.832 183.177 17.768C183.121 17.704 183.037 17.644 182.925 17.588C182.821 17.54 182.673 17.496 182.481 17.456C182.289 17.416 182.069 17.396 181.821 17.396C181.373 17.396 180.969 17.508 180.609 17.732C180.249 17.956 179.965 18.26 179.757 18.644C179.549 19.02 179.445 19.444 179.445 19.916C179.445 20.396 179.545 20.828 179.745 21.212C179.945 21.596 180.221 21.9 180.573 22.124C180.925 22.34 181.337 22.448 181.809 22.448C182.129 22.448 182.377 22.42 182.553 22.364C182.729 22.308 182.881 22.244 183.009 22.172C183.161 22.084 183.269 22 183.333 21.92C183.405 21.832 183.497 21.788 183.609 21.788C183.713 21.788 183.789 21.82 183.837 21.884C183.893 21.94 183.921 22.016 183.921 22.112C183.921 22.24 183.825 22.384 183.633 22.544C183.449 22.696 183.193 22.832 182.865 22.952C182.537 23.064 182.161 23.12 181.737 23.12C181.137 23.12 180.609 22.98 180.153 22.7C179.705 22.42 179.353 22.04 179.097 21.56C178.849 21.072 178.725 20.524 178.725 19.916C178.725 19.332 178.853 18.8 179.109 18.32C179.365 17.84 179.721 17.456 180.177 17.168C180.641 16.872 181.177 16.724 181.785 16.724ZM191.008 19.928C191.008 20.536 190.876 21.084 190.612 21.572C190.348 22.052 189.988 22.432 189.532 22.712C189.076 22.984 188.556 23.12 187.972 23.12C187.404 23.12 186.888 22.984 186.424 22.712C185.968 22.432 185.604 22.052 185.332 21.572C185.068 21.084 184.936 20.536 184.936 19.928C184.936 19.312 185.068 18.764 185.332 18.284C185.604 17.804 185.968 17.424 186.424 17.144C186.888 16.864 187.404 16.724 187.972 16.724C188.556 16.724 189.076 16.864 189.532 17.144C189.988 17.424 190.348 17.804 190.612 18.284C190.876 18.764 191.008 19.312 191.008 19.928ZM190.288 19.928C190.288 19.44 190.188 19.008 189.988 18.632C189.788 18.248 189.512 17.948 189.16 17.732C188.816 17.508 188.42 17.396 187.972 17.396C187.54 17.396 187.148 17.508 186.796 17.732C186.444 17.948 186.164 18.248 185.956 18.632C185.756 19.008 185.656 19.44 185.656 19.928C185.656 20.416 185.756 20.848 185.956 21.224C186.164 21.6 186.444 21.9 186.796 22.124C187.148 22.34 187.54 22.448 187.972 22.448C188.42 22.448 188.816 22.34 189.16 22.124C189.512 21.9 189.788 21.6 189.988 21.224C190.188 20.848 190.288 20.416 190.288 19.928ZM193.33 22.64C193.33 22.736 193.294 22.82 193.222 22.892C193.15 22.964 193.066 23 192.97 23C192.866 23 192.778 22.964 192.706 22.892C192.642 22.82 192.61 22.736 192.61 22.64V14.48C192.61 14.384 192.646 14.3 192.718 14.228C192.79 14.156 192.874 14.12 192.97 14.12C193.074 14.12 193.158 14.156 193.222 14.228C193.294 14.3 193.33 14.384 193.33 14.48V22.64ZM196.095 22.64C196.095 22.736 196.059 22.82 195.987 22.892C195.915 22.964 195.831 23 195.735 23C195.631 23 195.543 22.964 195.471 22.892C195.407 22.82 195.375 22.736 195.375 22.64V14.48C195.375 14.384 195.411 14.3 195.483 14.228C195.555 14.156 195.639 14.12 195.735 14.12C195.839 14.12 195.923 14.156 195.987 14.228C196.059 14.3 196.095 14.384 196.095 14.48V22.64ZM200.724 23.12C200.108 23.12 199.564 22.988 199.092 22.724C198.62 22.46 198.252 22.092 197.988 21.62C197.724 21.148 197.592 20.596 197.592 19.964C197.592 19.284 197.724 18.704 197.988 18.224C198.26 17.744 198.608 17.376 199.032 17.12C199.464 16.856 199.92 16.724 200.4 16.724C200.752 16.724 201.092 16.788 201.42 16.916C201.756 17.036 202.052 17.22 202.308 17.468C202.572 17.708 202.78 18.004 202.932 18.356C203.092 18.708 203.18 19.116 203.196 19.58C203.188 19.676 203.148 19.76 203.076 19.832C203.004 19.896 202.92 19.928 202.824 19.928H198.012L197.868 19.28H202.596L202.44 19.424V19.184C202.408 18.808 202.288 18.488 202.08 18.224C201.872 17.96 201.62 17.76 201.324 17.624C201.028 17.488 200.72 17.42 200.4 17.42C200.16 17.42 199.912 17.468 199.656 17.564C199.408 17.66 199.18 17.812 198.972 18.02C198.772 18.22 198.608 18.48 198.48 18.8C198.352 19.112 198.288 19.484 198.288 19.916C198.288 20.388 198.384 20.816 198.576 21.2C198.768 21.584 199.044 21.888 199.404 22.112C199.772 22.336 200.208 22.448 200.712 22.448C200.992 22.448 201.244 22.408 201.468 22.328C201.692 22.248 201.888 22.144 202.056 22.016C202.224 21.88 202.364 21.74 202.476 21.596C202.564 21.524 202.652 21.488 202.74 21.488C202.82 21.488 202.888 21.52 202.944 21.584C203.008 21.648 203.04 21.72 203.04 21.8C203.04 21.896 203 21.98 202.92 22.052C202.68 22.34 202.368 22.592 201.984 22.808C201.6 23.016 201.18 23.12 200.724 23.12ZM207.437 16.724C207.821 16.724 208.173 16.768 208.493 16.856C208.813 16.936 209.069 17.048 209.261 17.192C209.461 17.336 209.561 17.492 209.561 17.66C209.561 17.74 209.533 17.82 209.477 17.9C209.421 17.972 209.345 18.008 209.249 18.008C209.153 18.008 209.073 17.984 209.009 17.936C208.953 17.888 208.893 17.832 208.829 17.768C208.773 17.704 208.689 17.644 208.577 17.588C208.473 17.54 208.325 17.496 208.133 17.456C207.941 17.416 207.721 17.396 207.473 17.396C207.025 17.396 206.621 17.508 206.261 17.732C205.901 17.956 205.617 18.26 205.409 18.644C205.201 19.02 205.097 19.444 205.097 19.916C205.097 20.396 205.197 20.828 205.397 21.212C205.597 21.596 205.873 21.9 206.225 22.124C206.577 22.34 206.989 22.448 207.461 22.448C207.781 22.448 208.029 22.42 208.205 22.364C208.381 22.308 208.533 22.244 208.661 22.172C208.813 22.084 208.921 22 208.985 21.92C209.057 21.832 209.149 21.788 209.261 21.788C209.365 21.788 209.441 21.82 209.489 21.884C209.545 21.94 209.573 22.016 209.573 22.112C209.573 22.24 209.477 22.384 209.285 22.544C209.101 22.696 208.845 22.832 208.517 22.952C208.189 23.064 207.813 23.12 207.389 23.12C206.789 23.12 206.261 22.98 205.805 22.7C205.357 22.42 205.005 22.04 204.749 21.56C204.501 21.072 204.377 20.524 204.377 19.916C204.377 19.332 204.505 18.8 204.761 18.32C205.017 17.84 205.373 17.456 205.829 17.168C206.293 16.872 206.829 16.724 207.437 16.724ZM210.552 16.892H213.348C213.444 16.892 213.524 16.928 213.588 17C213.652 17.064 213.684 17.144 213.684 17.24C213.684 17.328 213.652 17.404 213.588 17.468C213.524 17.532 213.444 17.564 213.348 17.564H210.552C210.456 17.564 210.372 17.532 210.3 17.468C210.236 17.396 210.204 17.316 210.204 17.228C210.204 17.132 210.236 17.052 210.3 16.988C210.372 16.924 210.456 16.892 210.552 16.892ZM211.788 15.2C211.892 15.2 211.976 15.236 212.04 15.308C212.112 15.38 212.148 15.464 212.148 15.56V21.584C212.148 21.808 212.176 21.976 212.232 22.088C212.296 22.2 212.376 22.276 212.472 22.316C212.568 22.348 212.664 22.364 212.76 22.364C212.824 22.364 212.88 22.356 212.928 22.34C212.984 22.316 213.044 22.304 213.108 22.304C213.18 22.304 213.24 22.332 213.288 22.388C213.344 22.444 213.372 22.516 213.372 22.604C213.372 22.716 213.308 22.812 213.18 22.892C213.052 22.964 212.9 23 212.724 23C212.652 23 212.544 22.996 212.4 22.988C212.256 22.972 212.108 22.928 211.956 22.856C211.804 22.776 211.676 22.64 211.572 22.448C211.476 22.256 211.428 21.98 211.428 21.62V15.56C211.428 15.464 211.46 15.38 211.524 15.308C211.596 15.236 211.684 15.2 211.788 15.2ZM215.71 22.64C215.71 22.736 215.674 22.82 215.602 22.892C215.53 22.964 215.446 23 215.35 23C215.246 23 215.158 22.964 215.086 22.892C215.022 22.82 214.99 22.736 214.99 22.64V17.12C214.99 17.024 215.022 16.94 215.086 16.868C215.158 16.796 215.246 16.76 215.35 16.76C215.454 16.76 215.538 16.796 215.602 16.868C215.674 16.94 215.71 17.024 215.71 17.12V22.64ZM215.35 15.956C215.182 15.956 215.054 15.92 214.966 15.848C214.886 15.768 214.846 15.656 214.846 15.512V15.392C214.846 15.248 214.89 15.14 214.978 15.068C215.074 14.988 215.202 14.948 215.362 14.948C215.514 14.948 215.63 14.988 215.71 15.068C215.798 15.14 215.842 15.248 215.842 15.392V15.512C215.842 15.656 215.798 15.768 215.71 15.848C215.63 15.92 215.51 15.956 215.35 15.956ZM223.293 19.928C223.293 20.536 223.161 21.084 222.897 21.572C222.633 22.052 222.273 22.432 221.817 22.712C221.361 22.984 220.841 23.12 220.257 23.12C219.689 23.12 219.173 22.984 218.709 22.712C218.253 22.432 217.889 22.052 217.617 21.572C217.353 21.084 217.221 20.536 217.221 19.928C217.221 19.312 217.353 18.764 217.617 18.284C217.889 17.804 218.253 17.424 218.709 17.144C219.173 16.864 219.689 16.724 220.257 16.724C220.841 16.724 221.361 16.864 221.817 17.144C222.273 17.424 222.633 17.804 222.897 18.284C223.161 18.764 223.293 19.312 223.293 19.928ZM222.573 19.928C222.573 19.44 222.473 19.008 222.273 18.632C222.073 18.248 221.797 17.948 221.445 17.732C221.101 17.508 220.705 17.396 220.257 17.396C219.825 17.396 219.433 17.508 219.081 17.732C218.729 17.948 218.449 18.248 218.241 18.632C218.041 19.008 217.941 19.44 217.941 19.928C217.941 20.416 218.041 20.848 218.241 21.224C218.449 21.6 218.729 21.9 219.081 22.124C219.433 22.34 219.825 22.448 220.257 22.448C220.705 22.448 221.101 22.34 221.445 22.124C221.797 21.9 222.073 21.6 222.273 21.224C222.473 20.848 222.573 20.416 222.573 19.928ZM227.715 16.724C228.243 16.724 228.663 16.832 228.975 17.048C229.295 17.256 229.523 17.544 229.659 17.912C229.803 18.272 229.875 18.672 229.875 19.112V22.64C229.875 22.736 229.839 22.82 229.767 22.892C229.695 22.964 229.611 23 229.515 23C229.403 23 229.315 22.964 229.251 22.892C229.187 22.82 229.155 22.736 229.155 22.64V19.148C229.155 18.828 229.103 18.536 228.999 18.272C228.895 18.008 228.723 17.796 228.483 17.636C228.251 17.476 227.943 17.396 227.559 17.396C227.215 17.396 226.887 17.476 226.575 17.636C226.271 17.796 226.023 18.008 225.831 18.272C225.639 18.536 225.543 18.828 225.543 19.148V22.64C225.543 22.736 225.507 22.82 225.435 22.892C225.363 22.964 225.279 23 225.183 23C225.071 23 224.983 22.964 224.919 22.892C224.855 22.82 224.823 22.736 224.823 22.64V17.264C224.823 17.168 224.855 17.084 224.919 17.012C224.991 16.94 225.079 16.904 225.183 16.904C225.287 16.904 225.371 16.94 225.435 17.012C225.507 17.084 225.543 17.168 225.543 17.264V18.272L225.267 18.704C225.283 18.448 225.363 18.204 225.507 17.972C225.659 17.732 225.851 17.52 226.083 17.336C226.315 17.144 226.571 16.996 226.851 16.892C227.139 16.78 227.427 16.724 227.715 16.724Z" fill="white"/>
</g>
<g filter="url(#filter2_b_53_429)">
<rect x="256" width="36" height="36" rx="18" fill="white" fill-opacity="0.07"/>
<path d="M271.52 11.667C271.94 11.6797 272.347 11.7531 272.741 11.8871H272.78C272.807 11.8997 272.827 11.9137 272.84 11.9264C272.987 11.9737 273.127 12.0271 273.26 12.1004L273.513 12.2137C273.613 12.2671 273.733 12.3664 273.8 12.4071C273.867 12.4464 273.94 12.4871 274 12.5331C274.741 11.9671 275.64 11.6604 276.567 11.667C276.987 11.667 277.407 11.7264 277.807 11.8604C280.267 12.6604 281.154 15.3604 280.413 17.7204C279.993 18.9264 279.307 20.0271 278.407 20.9264C277.12 22.1731 275.707 23.2797 274.187 24.2331L274.02 24.3337L273.847 24.2264C272.321 23.2797 270.9 22.1731 269.601 20.9197C268.707 20.0204 268.02 18.9264 267.593 17.7204C266.84 15.3604 267.727 12.6604 270.214 11.8464C270.407 11.7797 270.607 11.7331 270.807 11.7071H270.887C271.074 11.6797 271.26 11.667 271.447 11.667H271.52ZM277.46 13.7737C277.187 13.6797 276.887 13.8271 276.787 14.1071C276.693 14.3871 276.84 14.6937 277.12 14.7931C277.547 14.9531 277.833 15.3737 277.833 15.8397V15.8604C277.821 16.0131 277.867 16.1604 277.96 16.2737C278.053 16.3871 278.193 16.4531 278.34 16.4671C278.613 16.4597 278.847 16.2404 278.867 15.9597V15.8804C278.887 14.9464 278.321 14.1004 277.46 13.7737Z" fill="#E5524A"/>
</g>
<defs>
<filter id="filter0_b_53_429" x="-10" y="-10" width="107" height="56" filterUnits="userSpaceOnUse" color-interpolation-filters="sRGB">
<feFlood flood-opacity="0" result="BackgroundImageFix"/>
<feGaussianBlur in="BackgroundImageFix" stdDeviation="5"/>
<feComposite in2="SourceAlpha" operator="in" result="effect1_backgroundBlur_53_429"/>
<feBlend mode="normal" in="SourceGraphic" in2="effect1_backgroundBlur_53_429" result="shape"/>
</filter>
<filter id="filter1_b_53_429" x="86" y="-10" width="171" height="56" filterUnits="userSpaceOnUse" color-interpolation-filters="sRGB">
<feFlood flood-opacity="0" result="BackgroundImageFix"/>
<feGaussianBlur in="BackgroundImageFix" stdDeviation="5"/>
<feComposite in2="SourceAlpha" operator="in" result="effect1_backgroundBlur_53_429"/>
<feBlend mode="normal" in="SourceGraphic" in2="effect1_backgroundBlur_53_429" result="shape"/>
</filter>
<filter id="filter2_b_53_429" x="246" y="-10" width="56" height="56" filterUnits="userSpaceOnUse" color-interpolation-filters="sRGB">
<feFlood flood-opacity="0" result="BackgroundImageFix"/>
<feGaussianBlur in="BackgroundImageFix" stdDeviation="5"/>
<feComposite in2="SourceAlpha" operator="in" result="effect1_backgroundBlur_53_429"/>
<feBlend mode="normal" in="SourceGraphic" in2="effect1_backgroundBlur_53_429" result="shape"/>
</filter>
</defs>
</svg>
